<svg fill="none" height="24" viewBox="0 0 25 24" width="25" xmlns="http://www.w3.org/2000/svg">
    <path d="M12.3376 14.7755C14.1409 14.7755 15.6029 13.3136 15.6029 11.5102C15.6029 9.7068 14.1409 8.24487 12.3376 8.24487C10.5342 8.24487 9.07227 9.7068 9.07227 11.5102C9.07227 13.3136 10.5342 14.7755 12.3376 14.7755Z"
          stroke="#3A8EF7" stroke-miterlimit="10" stroke-width="1.5"/>
    <path d="M7.0957 17.9919C7.58706 17.024 8.33681 16.2112 9.26186 15.6434C10.1869 15.0756 11.2511 14.775 12.3365 14.775C13.4219 14.775 14.4861 15.0756 15.4112 15.6434C16.3362 16.2112 17.086 17.024 17.5773 17.9919"
          stroke="#3A8EF7" stroke-linecap="round" stroke-linejoin="round" stroke-width="1.5"/>
    <path d="M18.2143 7.59186C18.9357 7.59186 19.5204 7.00709 19.5204 6.28574C19.5204 5.56438 18.9357 4.97961 18.2143 4.97961C17.493 4.97961 16.9082 5.56438 16.9082 6.28574C16.9082 7.00709 17.493 7.59186 18.2143 7.59186Z"
          stroke="#3A8EF7" stroke-linecap="round" stroke-linejoin="round" stroke-width="1.5"/>
    <path d="M18.2148 4.97959L18.2148 4" stroke="#3A8EF7" stroke-linecap="round" stroke-linejoin="round"
          stroke-width="1.5"/>
    <path d="M17.0791 5.63262L16.2383 5.14282" stroke="#3A8EF7" stroke-linecap="round" stroke-linejoin="round"
          stroke-width="1.5"/>
    <path d="M17.0791 6.93872L16.2383 7.42852" stroke="#3A8EF7" stroke-linecap="round" stroke-linejoin="round"
          stroke-width="1.5"/>
    <path d="M18.2148 7.5918L18.2148 8.57139" stroke="#3A8EF7" stroke-linecap="round" stroke-linejoin="round"
          stroke-width="1.5"/>
    <path d="M19.3496 6.93872L20.1904 7.42852" stroke="#3A8EF7" stroke-linecap="round" stroke-linejoin="round"
          stroke-width="1.5"/>
    <path d="M19.3496 5.63262L20.1904 5.14282" stroke="#3A8EF7" stroke-linecap="round" stroke-linejoin="round"
          stroke-width="1.5"/>
    <path d="M20.1163 11.2245C20.1559 11.5358 20.175 11.8495 20.1735 12.1633C20.1735 13.7132 19.7139 15.2284 18.8527 16.5171C17.9916 17.8059 16.7677 18.8103 15.3357 19.4035C13.9037 19.9966 12.328 20.1518 10.8079 19.8494C9.28769 19.5471 7.89132 18.8007 6.79533 17.7047C5.69934 16.6087 4.95297 15.2123 4.65058 13.6922C4.3482 12.172 4.5034 10.5963 5.09654 9.1643C5.68968 7.73233 6.69414 6.5084 7.98288 5.64728C9.27163 4.78617 10.7868 4.32656 12.3367 4.32656C12.5793 4.32503 12.8218 4.33593 13.0633 4.35921"
          stroke="#3A8EF7" stroke-linecap="round" stroke-linejoin="round" stroke-width="1.5"/>
</svg>
