<svg width="24" height="24" viewBox="0 0 24 24" fill="none" xmlns="http://www.w3.org/2000/svg">
	<path
		d="M17.25 8.49999H10.25C9.2835 8.49999 8.5 9.28349 8.5 10.25V17.25C8.5 18.2165 9.2835 19 10.25 19H17.25C18.2165 19 19 18.2165 19 17.25V10.25C19 9.28349 18.2165 8.49999 17.25 8.49999Z"
		stroke="#3A8EF7" stroke-width="1.5" stroke-linecap="round" stroke-linejoin="round"/>
	<path
		d="M15.5 8.5V6.75C15.5 6.28587 15.3156 5.84075 14.9874 5.51256C14.6593 5.18437 14.2141 5 13.75 5H6.75C6.28587 5 5.84075 5.18437 5.51256 5.51256C5.18437 5.84075 5 6.28587 5 6.75V13.75C5 14.2141 5.18437 14.6593 5.51256 14.9874C5.84075 15.3156 6.28587 15.5 6.75 15.5H8.5"
		stroke="#3A8EF7" stroke-width="1.5" stroke-linecap="round" stroke-linejoin="round"/>
</svg>
