<svg width="24" height="24" viewBox="0 0 24 24" fill="none" xmlns="http://www.w3.org/2000/svg">
	<path
		d="M14.9474 5.73684L14.417 5.20651L14.417 5.20651L14.9474 5.73684ZM18.2632 9.05263L18.7935 9.58296L18.2632 9.05263ZM9.42105 17.8947L9.60295 18.6223C9.73483 18.5894 9.85526 18.5212 9.95138 18.4251L9.42105 17.8947ZM5 19L4.27239 18.8181C4.2085 19.0737 4.28338 19.344 4.46967 19.5303C4.65596 19.7166 4.92632 19.7915 5.1819 19.7276L5 19ZM6.10526 14.5789L5.57493 14.0486C5.47881 14.1447 5.41062 14.2652 5.37766 14.397L6.10526 14.5789ZM17.7328 8.5223L8.89072 17.3644L9.95138 18.4251L18.7935 9.58296L17.7328 8.5223ZM9.23915 17.1671L4.8181 18.2724L5.1819 19.7276L9.60295 18.6223L9.23915 17.1671ZM5.72761 19.1819L6.83287 14.7608L5.37766 14.397L4.27239 18.8181L5.72761 19.1819ZM6.63559 15.1093L15.4777 6.26717L14.417 5.20651L5.57493 14.0486L6.63559 15.1093ZM14.9474 5.73684C15.4777 6.26717 15.4774 6.26742 15.4772 6.26767C15.4771 6.26774 15.4769 6.26799 15.4767 6.26813C15.4764 6.26843 15.4762 6.2687 15.4759 6.26895C15.4754 6.26945 15.475 6.26986 15.4747 6.27017C15.474 6.27079 15.4738 6.27105 15.4739 6.27095C15.4741 6.27076 15.4757 6.26917 15.4788 6.26633C15.4848 6.26064 15.4964 6.25003 15.513 6.23561C15.5465 6.20661 15.5993 6.16324 15.6682 6.114C15.8091 6.01342 16.0011 5.89984 16.2207 5.82664C16.4372 5.75448 16.6653 5.72621 16.8986 5.77285C17.1263 5.81839 17.4112 5.9455 17.7328 6.26717L18.7935 5.20651C18.2862 4.69924 17.7422 4.41187 17.1927 4.30198C16.6488 4.1932 16.1516 4.26854 15.7464 4.40362C15.3443 4.53765 15.0182 4.73493 14.7964 4.8934C14.684 4.97368 14.5943 5.04689 14.5306 5.10207C14.4987 5.12975 14.473 5.15314 14.454 5.17092C14.4445 5.17982 14.4366 5.18734 14.4305 5.19332C14.4274 5.19631 14.4247 5.19892 14.4225 5.20112C14.4214 5.20222 14.4203 5.20323 14.4194 5.20412C14.419 5.20457 14.4186 5.205 14.4182 5.2054C14.418 5.20559 14.4177 5.20587 14.4176 5.20597C14.4173 5.20624 14.417 5.20651 14.9474 5.73684ZM17.7328 6.26717C18.0545 6.58885 18.1816 6.87374 18.2271 7.10144C18.2738 7.33468 18.2455 7.56279 18.1734 7.77928C18.1002 7.99888 17.9866 8.19094 17.886 8.33175C17.8368 8.40069 17.7934 8.45349 17.7644 8.48696C17.75 8.50359 17.7394 8.51515 17.7337 8.52124C17.7308 8.52427 17.7292 8.52592 17.729 8.52612C17.729 8.52621 17.7292 8.52595 17.7298 8.52532C17.7301 8.525 17.7305 8.52459 17.731 8.52409C17.7313 8.52384 17.7316 8.52356 17.7319 8.52327C17.732 8.52312 17.7323 8.52287 17.7323 8.5228C17.7326 8.52255 17.7328 8.5223 18.2632 9.05263C18.7935 9.58296 18.7938 9.58269 18.794 9.58242C18.7941 9.58232 18.7944 9.58204 18.7946 9.58184C18.795 9.58144 18.7954 9.58102 18.7959 9.58057C18.7968 9.57966 18.7978 9.57865 18.7989 9.57753C18.8011 9.57529 18.8037 9.57262 18.8067 9.56953C18.8127 9.56336 18.8202 9.55549 18.8291 9.54597C18.8469 9.52696 18.8702 9.50129 18.8979 9.46935C18.9531 9.40567 19.0263 9.316 19.1066 9.20361C19.2651 8.98175 19.4623 8.65573 19.5964 8.25362C19.7315 7.84839 19.8068 7.35117 19.698 6.80727C19.5881 6.25784 19.3008 5.71378 18.7935 5.20651L17.7328 6.26717Z"
		fill="#3A8EF7"/>
</svg>
