<svg width="363" height="76" viewBox="0 0 363 76" fill="none" xmlns="http://www.w3.org/2000/svg">
	<path
		d="M68.8729 36.4559C68.8729 44.7515 68.8729 66.5649 68.8729 66.5649C68.8729 66.5649 47.097 66.5649 38.7639 66.5649C22.1351 66.5649 8.65479 53.0847 8.65479 36.4559C8.65479 19.8271 22.1351 6.3468 38.7639 6.3468C55.3926 6.3468 68.8729 19.8271 68.8729 36.4559Z"
		fill="#FF835C"/>
	<rect x="19.0376" y="22.9587" width="12.4589" height="10.3824" rx="5.19122" fill="white"/>
	<rect x="23.1909" y="39.5707" width="22.8414" height="10.3824" rx="5.19122" fill="white"/>
	<rect x="35.6494" y="22.9587" width="22.8414" height="10.3824" rx="5.19122" fill="white"/>
	<rect x="50.1841" y="39.5707" width="10.3824" height="10.3824" rx="5.19122" fill="white"/>
	<path
		d="M96.4227 18.3188C95.5433 18.3188 94.7581 18.5073 94.0671 18.8842C93.3761 19.2485 92.7857 19.7824 92.2957 20.486C91.8057 21.1895 91.4288 22.0501 91.165 23.0677C90.9138 24.0727 90.7881 25.216 90.7881 26.4974C90.7881 28.2311 91.008 29.6884 91.4477 30.8694C91.8874 32.0503 92.5532 32.9423 93.4452 33.5453C94.3498 34.1483 95.4804 34.4498 96.8373 34.4498C98.0684 34.4498 99.2494 34.2802 100.38 33.941C101.523 33.6018 102.673 33.1935 103.829 32.7161V39.0102C102.61 39.5505 101.36 39.9399 100.079 40.1786C98.8097 40.4173 97.4591 40.5367 96.0269 40.5367C93.0369 40.5367 90.5871 39.9462 88.6775 38.7653C86.7805 37.5718 85.3797 35.9197 84.4752 33.8091C83.5832 31.6985 83.1372 29.2487 83.1372 26.4597C83.1372 24.3742 83.4262 22.4647 84.0041 20.7309C84.5945 18.9972 85.4551 17.4959 86.5858 16.2271C87.7165 14.9456 89.111 13.9594 90.7693 13.2685C92.4402 12.5649 94.3498 12.2132 96.4981 12.2132C97.8297 12.2132 99.2305 12.3702 100.7 12.6843C102.183 12.9858 103.628 13.4758 105.035 14.1542L102.754 20.0148C101.749 19.5375 100.732 19.1354 99.7016 18.8088C98.6715 18.4822 97.5785 18.3188 96.4227 18.3188Z"
		fill="#3F3F3F"/>
	<path
		d="M119.206 18.4319C121.907 18.4319 124.018 19.104 125.538 20.4483C127.058 21.78 127.818 23.6833 127.818 26.1582V40.1598H122.711L121.298 37.3331H121.147C120.544 38.0869 119.922 38.7024 119.281 39.1798C118.653 39.6447 117.931 39.9839 117.114 40.1975C116.297 40.4236 115.299 40.5367 114.118 40.5367C112.887 40.5367 111.781 40.2854 110.801 39.7829C109.821 39.2803 109.049 38.5203 108.483 37.5027C107.918 36.4851 107.635 35.1973 107.635 33.6395C107.635 31.353 108.427 29.657 110.01 28.5515C111.593 27.4459 113.885 26.824 116.888 26.6858L120.45 26.5728V26.2713C120.45 25.3165 120.211 24.6381 119.733 24.236C119.269 23.834 118.641 23.633 117.849 23.633C117.007 23.633 116.065 23.7838 115.022 24.0853C113.992 24.3742 112.956 24.7511 111.913 25.216L109.784 20.3541C111.015 19.7259 112.409 19.2485 113.967 18.9219C115.525 18.5952 117.271 18.4319 119.206 18.4319ZM120.487 30.6244L118.791 30.6998C117.434 30.75 116.48 30.9887 115.927 31.4159C115.387 31.8304 115.117 32.4272 115.117 33.2061C115.117 33.9348 115.311 34.475 115.701 34.8267C116.09 35.1659 116.605 35.3355 117.246 35.3355C118.138 35.3355 118.898 35.0529 119.526 34.4875C120.167 33.9222 120.487 33.1872 120.487 32.2827V30.6244Z"
		fill="#3F3F3F"/>
	<path
		d="M145.871 18.4319C148.233 18.4319 150.086 19.3804 151.43 21.2774C152.774 23.1619 153.447 25.8818 153.447 29.4372C153.447 31.8618 153.107 33.9033 152.429 35.5617C151.751 37.2074 150.821 38.4512 149.64 39.2929C148.472 40.1221 147.14 40.5367 145.645 40.5367C144.64 40.5367 143.786 40.411 143.082 40.1598C142.391 39.9085 141.813 39.5944 141.348 39.2175C140.896 38.8406 140.513 38.4575 140.199 38.068H139.973C140.035 38.558 140.086 39.0856 140.123 39.651C140.174 40.2163 140.199 40.8759 140.199 41.6296V49.4313H132.831V18.8088H138.823L139.86 21.5224H140.199C140.551 20.9696 140.978 20.4608 141.48 19.996C141.983 19.5186 142.592 19.1417 143.308 18.8653C144.037 18.5764 144.891 18.4319 145.871 18.4319ZM143.101 24.2172C142.385 24.2172 141.819 24.3868 141.405 24.726C140.99 25.0652 140.689 25.5803 140.5 26.2713C140.324 26.9497 140.224 27.7977 140.199 28.8153V29.3995C140.199 30.5302 140.287 31.4849 140.463 32.2639C140.638 33.0302 140.94 33.6144 141.367 34.0164C141.794 34.4059 142.385 34.6006 143.139 34.6006C143.754 34.6006 144.269 34.4247 144.684 34.0729C145.098 33.7212 145.412 33.1621 145.626 32.3958C145.84 31.6294 145.946 30.6181 145.946 29.3618C145.946 27.4899 145.701 26.1645 145.211 25.3856C144.734 24.6067 144.031 24.2172 143.101 24.2172Z"
		fill="#3F3F3F"/>
	<path
		d="M168.127 34.7137C168.792 34.7137 169.402 34.6446 169.954 34.5064C170.507 34.3682 171.085 34.1923 171.688 33.9787V39.3494C170.884 39.7012 170.03 39.9839 169.125 40.1975C168.233 40.4236 167.09 40.5367 165.696 40.5367C164.314 40.5367 163.095 40.3231 162.04 39.8959C160.984 39.4562 160.162 38.7024 159.571 37.6346C158.993 36.5542 158.704 35.0529 158.704 33.1307V24.3303H156.122V21.334L159.401 19.0161L161.305 14.5311H166.129V18.8088H171.368V24.3303H166.129V32.6408C166.129 33.3317 166.305 33.8531 166.657 34.2049C167.008 34.5441 167.498 34.7137 168.127 34.7137Z"
		fill="#3F3F3F"/>
	<path
		d="M182.825 18.8088V40.1598H175.457V18.8088H182.825ZM179.169 10.2156C180.225 10.2156 181.142 10.4355 181.921 10.8752C182.712 11.3149 183.108 12.188 183.108 13.4946C183.108 14.7635 182.712 15.624 181.921 16.0763C181.142 16.516 180.225 16.7359 179.169 16.7359C178.089 16.7359 177.166 16.516 176.399 16.0763C175.646 15.624 175.269 14.7635 175.269 13.4946C175.269 12.188 175.646 11.3149 176.399 10.8752C177.166 10.4355 178.089 10.2156 179.169 10.2156Z"
		fill="#3F3F3F"/>
	<path
		d="M208.36 29.4372C208.36 31.2211 208.115 32.8041 207.625 34.186C207.135 35.568 206.425 36.73 205.495 37.6723C204.566 38.6145 203.441 39.3306 202.122 39.8206C200.803 40.298 199.314 40.5367 197.656 40.5367C196.111 40.5367 194.691 40.298 193.397 39.8206C192.116 39.3306 190.998 38.6145 190.043 37.6723C189.088 36.73 188.347 35.568 187.819 34.186C187.304 32.8041 187.047 31.2211 187.047 29.4372C187.047 27.0753 187.474 25.0778 188.328 23.4446C189.195 21.8114 190.426 20.5676 192.022 19.7133C193.63 18.859 195.545 18.4319 197.769 18.4319C199.817 18.4319 201.639 18.859 203.234 19.7133C204.83 20.5676 206.08 21.8114 206.984 23.4446C207.901 25.0778 208.36 27.0753 208.36 29.4372ZM194.528 29.4372C194.528 30.6558 194.635 31.686 194.848 32.5277C195.062 33.3569 195.401 33.9913 195.866 34.431C196.343 34.8581 196.965 35.0717 197.731 35.0717C198.498 35.0717 199.107 34.8581 199.559 34.431C200.012 33.9913 200.338 33.3569 200.539 32.5277C200.753 31.686 200.86 30.6558 200.86 29.4372C200.86 28.2185 200.753 27.2009 200.539 26.3843C200.338 25.5677 200.005 24.9521 199.541 24.5376C199.088 24.123 198.473 23.9157 197.694 23.9157C196.576 23.9157 195.765 24.3805 195.263 25.3102C194.773 26.2399 194.528 27.6155 194.528 29.4372Z"
		fill="#3F3F3F"/>
	<path
		d="M225.942 18.4319C228.14 18.4319 229.937 19.0538 231.331 20.2975C232.726 21.5413 233.423 23.5325 233.423 26.2713V40.1598H226.055V28.5138C226.055 27.0941 225.848 26.0263 225.433 25.3102C225.031 24.5815 224.378 24.2172 223.473 24.2172C222.079 24.2172 221.143 24.7888 220.665 25.9321C220.188 27.0627 219.949 28.6897 219.949 30.8128V40.1598H212.581V18.8088H218.14L219.139 21.6355H219.422C219.874 20.9571 220.414 20.3792 221.042 19.9018C221.67 19.4244 222.393 19.0601 223.209 18.8088C224.026 18.5575 224.937 18.4319 225.942 18.4319Z"
		fill="#3F3F3F"/>
	<path
		d="M275.409 12.6089L268.625 40.1598H259.825L257.186 28.1557C257.136 27.9296 257.054 27.5464 256.941 27.0062C256.841 26.466 256.721 25.8504 256.583 25.1594C256.458 24.4685 256.338 23.7901 256.225 23.1242C256.125 22.4458 256.049 21.8742 255.999 21.4094C255.949 21.8742 255.867 22.4458 255.754 23.1242C255.641 23.7901 255.515 24.4685 255.377 25.1594C255.252 25.8504 255.126 26.466 255 27.0062C254.887 27.5464 254.806 27.9296 254.755 28.1557L252.098 40.1598H243.298L236.476 12.6089H243.656L246.652 26.422C246.727 26.7612 246.828 27.2449 246.954 27.8731C247.092 28.4887 247.23 29.1671 247.368 29.9083C247.519 30.6369 247.657 31.3405 247.783 32.0189C247.908 32.6973 247.996 33.2626 248.047 33.7149C248.147 32.936 248.279 32.0503 248.442 31.0578C248.618 30.0653 248.807 29.0603 249.008 28.0427C249.221 27.0125 249.422 26.0577 249.611 25.1783C249.799 24.2989 249.962 23.5828 250.101 23.03L252.532 12.6089H259.429L261.784 23.03C261.91 23.5702 262.067 24.2863 262.255 25.1783C262.456 26.0577 262.657 27.0125 262.859 28.0427C263.072 29.0728 263.267 30.0904 263.443 31.0955C263.619 32.088 263.75 32.9611 263.838 33.7149C263.914 33.0867 264.039 32.2953 264.215 31.3405C264.391 30.3731 264.567 29.4372 264.743 28.5326C264.931 27.6155 265.076 26.9245 265.176 26.4597L268.229 12.6089H275.409Z"
		fill="#3F3F3F"/>
	<path
		d="M298.927 29.4372C298.927 31.2211 298.682 32.8041 298.192 34.186C297.702 35.568 296.992 36.73 296.063 37.6723C295.133 38.6145 294.009 39.3306 292.69 39.8206C291.37 40.298 289.882 40.5367 288.223 40.5367C286.678 40.5367 285.258 40.298 283.964 39.8206C282.683 39.3306 281.565 38.6145 280.61 37.6723C279.655 36.73 278.914 35.568 278.386 34.186C277.871 32.8041 277.614 31.2211 277.614 29.4372C277.614 27.0753 278.041 25.0778 278.895 23.4446C279.762 21.8114 280.993 20.5676 282.589 19.7133C284.197 18.859 286.113 18.4319 288.336 18.4319C290.384 18.4319 292.206 18.859 293.801 19.7133C295.397 20.5676 296.647 21.8114 297.551 23.4446C298.469 25.0778 298.927 27.0753 298.927 29.4372ZM285.095 29.4372C285.095 30.6558 285.202 31.686 285.416 32.5277C285.629 33.3569 285.968 33.9913 286.433 34.431C286.911 34.8581 287.532 35.0717 288.299 35.0717C289.065 35.0717 289.674 34.8581 290.127 34.431C290.579 33.9913 290.906 33.3569 291.107 32.5277C291.32 31.686 291.427 30.6558 291.427 29.4372C291.427 28.2185 291.32 27.2009 291.107 26.3843C290.906 25.5677 290.573 24.9521 290.108 24.5376C289.656 24.123 289.04 23.9157 288.261 23.9157C287.143 23.9157 286.333 24.3805 285.83 25.3102C285.34 26.2399 285.095 27.6155 285.095 29.4372Z"
		fill="#3F3F3F"/>
	<path
		d="M316.038 18.4319C316.44 18.4319 316.861 18.4633 317.301 18.5261C317.74 18.5764 318.067 18.6203 318.281 18.658L317.621 25.6117C317.382 25.5489 317.075 25.4986 316.698 25.4609C316.321 25.4107 315.793 25.3856 315.115 25.3856C314.65 25.3856 314.154 25.4295 313.626 25.5175C313.098 25.6054 312.596 25.7939 312.118 26.0828C311.654 26.3592 311.27 26.7864 310.969 27.3643C310.667 27.9296 310.517 28.6959 310.517 29.6633V40.1598H303.148V18.8088H308.632L309.782 22.2197H310.14C310.529 21.5161 311.025 20.8817 311.628 20.3164C312.244 19.7385 312.929 19.2799 313.682 18.9407C314.449 18.6015 315.234 18.4319 316.038 18.4319Z"
		fill="#3F3F3F"/>
	<path
		d="M328.683 10.8375V22.3704C328.683 23.2373 328.645 24.2046 328.57 25.2725C328.507 26.3278 328.406 27.2889 328.268 28.1557H328.419C328.708 27.716 329.072 27.1632 329.512 26.4974C329.952 25.8316 330.347 25.2788 330.699 24.8391L335.486 18.8088H343.702L336.296 27.8919L344.173 40.1598H335.75L331.076 32.5088L328.683 34.3368V40.1598H321.277V10.8375H328.683Z"
		fill="#3F3F3F"/>
	<path
		d="M362.584 33.6018C362.584 34.9586 362.283 36.1584 361.68 37.2012C361.077 38.2439 360.109 39.0605 358.778 39.651C357.459 40.2414 355.719 40.5367 353.558 40.5367C352.038 40.5367 350.675 40.455 349.468 40.2917C348.275 40.1284 347.063 39.8143 345.831 39.3494V33.4511C347.176 34.0667 348.545 34.5127 349.94 34.789C351.334 35.0529 352.433 35.1848 353.237 35.1848C354.067 35.1848 354.67 35.0968 355.046 34.921C355.436 34.7325 355.631 34.4561 355.631 34.0918C355.631 33.7777 355.499 33.5139 355.235 33.3003C354.984 33.0742 354.525 32.8166 353.859 32.5277C353.206 32.2387 352.283 31.8493 351.089 31.3593C349.908 30.8694 348.922 30.3354 348.13 29.7575C347.352 29.1796 346.767 28.4887 346.378 27.6846C345.988 26.8806 345.794 25.8944 345.794 24.726C345.794 22.6405 346.598 21.0701 348.206 20.0148C349.814 18.9595 351.943 18.4319 354.594 18.4319C356.001 18.4319 357.327 18.5889 358.57 18.903C359.814 19.2045 361.102 19.6505 362.434 20.241L360.417 24.9898C359.362 24.5124 358.294 24.1293 357.214 23.8403C356.133 23.5514 355.273 23.4069 354.632 23.4069C354.054 23.4069 353.608 23.4823 353.294 23.633C352.98 23.7838 352.823 24.0036 352.823 24.2926C352.823 24.5564 352.93 24.7888 353.143 24.9898C353.369 25.1908 353.79 25.4233 354.406 25.6871C355.021 25.9509 355.92 26.3215 357.101 26.7989C358.344 27.3014 359.368 27.8417 360.172 28.4196C360.989 28.9849 361.592 29.6759 361.981 30.4925C362.383 31.3091 362.584 32.3455 362.584 33.6018Z"
		fill="#3F3F3F"/>
	<path
		d="M89.8367 56.0241C89.3429 56.0241 88.9046 56.1212 88.5217 56.3154C88.1445 56.504 87.8254 56.7787 87.5647 57.1393C87.3094 57.5 87.1152 57.9355 86.9821 58.4459C86.8489 58.9564 86.7823 59.5307 86.7823 60.1687C86.7823 61.0287 86.8878 61.7639 87.0986 62.3742C87.315 62.979 87.6479 63.4422 88.0973 63.7641C88.5467 64.0803 89.1265 64.2384 89.8367 64.2384C90.3305 64.2384 90.8243 64.183 91.3181 64.072C91.8175 63.961 92.3584 63.8029 92.941 63.5976V65.7615C92.4028 65.9834 91.873 66.1415 91.3514 66.2358C90.8299 66.3357 90.2445 66.3857 89.5954 66.3857C88.3414 66.3857 87.3094 66.1277 86.4994 65.6117C85.6949 65.0901 85.0984 64.3633 84.71 63.4312C84.3216 62.4935 84.1274 61.4005 84.1274 60.1521C84.1274 59.231 84.2523 58.3877 84.502 57.622C84.7516 56.8563 85.1178 56.1933 85.6005 55.6329C86.0832 55.0725 86.6797 54.6398 87.3899 54.3346C88.1001 54.0295 88.9157 53.8769 89.8367 53.8769C90.4415 53.8769 91.0462 53.9546 91.651 54.1099C92.2613 54.2597 92.8439 54.4678 93.3988 54.7341L92.5665 56.8314C92.1115 56.615 91.6538 56.4263 91.1933 56.2654C90.7328 56.1045 90.2806 56.0241 89.8367 56.0241Z"
		fill="#3F3F3F"/>
	<path
		d="M107.588 66.2192L106.706 63.323H102.27L101.388 66.2192H98.6083L102.903 54.0017H106.057L110.368 66.2192H107.588ZM106.09 61.1591L105.208 58.3294C105.153 58.1408 105.078 57.8994 104.983 57.6054C104.895 57.3058 104.803 57.0034 104.709 56.6982C104.62 56.3875 104.548 56.1184 104.492 55.8909C104.437 56.1184 104.359 56.4014 104.259 56.7398C104.165 57.0727 104.073 57.389 103.985 57.6886C103.896 57.9882 103.832 58.2018 103.793 58.3294L102.919 61.1591H106.09Z"
		fill="#3F3F3F"/>
	<path
		d="M120.396 54.0516C121.967 54.0516 123.112 54.3901 123.834 55.067C124.555 55.7383 124.916 56.6649 124.916 57.8467C124.916 58.3794 124.835 58.8898 124.674 59.3781C124.513 59.8608 124.25 60.2908 123.884 60.6681C123.523 61.0454 123.04 61.345 122.435 61.5669C121.831 61.7833 121.084 61.8915 120.197 61.8915H119.09V66.2192H116.51V54.0516H120.396ZM120.263 56.1656H119.09V59.7776H119.939C120.421 59.7776 120.84 59.7137 121.195 59.5861C121.55 59.4585 121.825 59.2588 122.019 58.9869C122.213 58.715 122.311 58.3655 122.311 57.9383C122.311 57.3391 122.144 56.8952 121.811 56.6067C121.478 56.3126 120.962 56.1656 120.263 56.1656Z"
		fill="#3F3F3F"/>
	<path d="M136.509 66.2192H133.929V56.1989H130.624V54.0516H139.813V56.1989H136.509V66.2192Z"
	      fill="#3F3F3F"/>
	<path d="M146.287 66.2192V54.0516H148.867V66.2192H146.287Z" fill="#3F3F3F"/>
	<path
		d="M167.576 60.1188C167.576 61.0565 167.459 61.9109 167.226 62.6821C166.993 63.4478 166.638 64.1081 166.161 64.6629C165.689 65.2177 165.09 65.6449 164.363 65.9446C163.637 66.2386 162.777 66.3857 161.783 66.3857C160.79 66.3857 159.93 66.2386 159.203 65.9446C158.477 65.6449 157.875 65.2177 157.397 64.6629C156.926 64.1081 156.573 63.445 156.34 62.6738C156.107 61.9026 155.991 61.0454 155.991 60.1021C155.991 58.8427 156.196 57.7469 156.607 56.8147C157.023 55.8771 157.661 55.1502 158.521 54.6342C159.381 54.1182 160.474 53.8602 161.8 53.8602C163.121 53.8602 164.205 54.1182 165.054 54.6342C165.909 55.1502 166.541 55.8771 166.952 56.8147C167.368 57.7524 167.576 58.8538 167.576 60.1188ZM158.696 60.1188C158.696 60.9677 158.801 61.7001 159.012 62.3159C159.228 62.9262 159.564 63.3979 160.019 63.7308C160.474 64.0581 161.062 64.2218 161.783 64.2218C162.516 64.2218 163.109 64.0581 163.564 63.7308C164.019 63.3979 164.35 62.9262 164.555 62.3159C164.766 61.7001 164.871 60.9677 164.871 60.1188C164.871 58.8427 164.632 57.8384 164.155 57.106C163.678 56.3736 162.893 56.0074 161.8 56.0074C161.073 56.0074 160.48 56.1739 160.019 56.5068C159.564 56.8342 159.228 57.3058 159.012 57.9216C158.801 58.5319 158.696 59.2643 158.696 60.1188Z"
		fill="#3F3F3F"/>
	<path
		d="M185.494 66.2192H182.215L176.922 57.0145H176.847C176.869 57.3973 176.888 57.7829 176.905 58.1713C176.922 58.5597 176.938 58.9481 176.955 59.3365C176.972 59.7193 176.988 60.1049 177.005 60.4933V66.2192H174.7V54.0516H177.954L183.239 63.1648H183.297C183.286 62.7875 183.272 62.413 183.255 62.0413C183.239 61.6695 183.222 61.2978 183.205 60.9261C183.194 60.5543 183.183 60.1826 183.172 59.8108V54.0516H185.494V66.2192Z"
		fill="#3F3F3F"/>
	<path
		d="M200.349 62.8403C200.349 63.5615 200.175 64.1885 199.825 64.7211C199.476 65.2538 198.965 65.6644 198.294 65.9529C197.628 66.2414 196.818 66.3857 195.864 66.3857C195.442 66.3857 195.029 66.3579 194.623 66.3024C194.224 66.2469 193.838 66.1665 193.467 66.0611C193.1 65.9501 192.751 65.8142 192.418 65.6533V63.2564C192.995 63.5116 193.594 63.7419 194.216 63.9471C194.837 64.1524 195.453 64.2551 196.063 64.2551C196.485 64.2551 196.823 64.1996 197.079 64.0886C197.339 63.9777 197.528 63.8251 197.645 63.6309C197.761 63.4367 197.819 63.2148 197.819 62.9651C197.819 62.6599 197.717 62.3992 197.511 62.1828C197.306 61.9664 197.023 61.7639 196.662 61.5752C196.307 61.3866 195.905 61.1841 195.456 60.9677C195.173 60.8345 194.865 60.6736 194.532 60.485C194.199 60.2908 193.883 60.055 193.583 59.7776C193.284 59.5001 193.037 59.1645 192.842 58.7705C192.654 58.371 192.559 57.8939 192.559 57.3391C192.559 56.6122 192.726 55.9908 193.059 55.4748C193.392 54.9588 193.866 54.5649 194.482 54.293C195.103 54.0156 195.836 53.8769 196.679 53.8769C197.312 53.8769 197.914 53.9518 198.485 54.1016C199.062 54.2458 199.664 54.4567 200.291 54.7341L199.459 56.7398C198.898 56.5123 198.396 56.3376 197.952 56.2155C197.509 56.0879 197.056 56.0241 196.596 56.0241C196.274 56.0241 195.999 56.0768 195.772 56.1822C195.545 56.2821 195.373 56.4263 195.256 56.615C195.139 56.7981 195.081 57.0117 195.081 57.2558C195.081 57.5443 195.164 57.7885 195.331 57.9882C195.503 58.1824 195.758 58.371 196.097 58.5541C196.441 58.7372 196.868 58.9508 197.378 59.195C198 59.489 198.53 59.797 198.968 60.1188C199.412 60.435 199.753 60.8096 199.992 61.2423C200.23 61.6695 200.349 62.2022 200.349 62.8403Z"
		fill="#3F3F3F"/>
	<path
		d="M231.134 54.0516L228.038 66.2192H225.1L223.452 59.8275C223.419 59.7054 223.374 59.5196 223.319 59.2699C223.263 59.0202 223.205 58.7483 223.144 58.4543C223.083 58.1547 223.028 57.8745 222.978 57.6137C222.933 57.3474 222.903 57.1365 222.886 56.9812C222.87 57.1365 222.836 57.3446 222.786 57.6054C222.742 57.8661 222.689 58.1436 222.628 58.4376C222.573 58.7317 222.517 59.0063 222.462 59.2616C222.406 59.5168 222.362 59.711 222.329 59.8441L220.689 66.2192H217.759L214.655 54.0516H217.194L218.75 60.693C218.794 60.8928 218.844 61.1314 218.9 61.4088C218.961 61.6862 219.019 61.9775 219.074 62.2826C219.135 62.5823 219.188 62.8735 219.233 63.1565C219.282 63.4339 219.319 63.6753 219.341 63.8806C219.368 63.6697 219.405 63.4256 219.449 63.1482C219.493 62.8652 219.54 62.5795 219.59 62.291C219.646 61.9969 219.701 61.725 219.757 61.4754C219.812 61.2257 219.862 61.0232 219.907 60.8678L221.679 54.0516H224.118L225.891 60.8678C225.929 61.0176 225.974 61.2201 226.024 61.4754C226.079 61.725 226.135 61.9969 226.19 62.291C226.246 62.585 226.296 62.8735 226.34 63.1565C226.39 63.4339 226.426 63.6753 226.448 63.8806C226.487 63.6031 226.54 63.2675 226.606 62.8735C226.678 62.4741 226.753 62.0774 226.831 61.6834C226.914 61.2895 226.986 60.9594 227.047 60.693L228.595 54.0516H231.134Z"
		fill="#3F3F3F"/>
	<path d="M237.267 66.2192V54.0516H239.847V66.2192H237.267Z" fill="#3F3F3F"/>
	<path d="M252.206 66.2192H249.626V56.1989H246.322V54.0516H255.51V56.1989H252.206V66.2192Z"
	      fill="#3F3F3F"/>
	<path
		d="M271.955 66.2192H269.383V60.9677H264.564V66.2192H261.984V54.0516H264.564V58.8205H269.383V54.0516H271.955V66.2192Z"
		fill="#3F3F3F"/>
	<path
		d="M298.636 66.2192H296.065V60.9677H291.246V66.2192H288.666V54.0516H291.246V58.8205H296.065V54.0516H298.636V66.2192Z"
		fill="#3F3F3F"/>
	<path
		d="M313.325 66.2192H306.318V54.0516H313.325V56.1656H308.898V58.8371H313.017V60.951H308.898V64.0886H313.325V66.2192Z"
		fill="#3F3F3F"/>
	<path
		d="M327.923 66.2192L327.04 63.323H322.604L321.722 66.2192H318.943L323.237 54.0017H326.391L330.702 66.2192H327.923ZM326.425 61.1591L325.542 58.3294C325.487 58.1408 325.412 57.8994 325.318 57.6054C325.229 57.3058 325.137 57.0034 325.043 56.6982C324.954 56.3875 324.882 56.1184 324.827 55.8909C324.771 56.1184 324.693 56.4014 324.594 56.7398C324.499 57.0727 324.408 57.389 324.319 57.6886C324.23 57.9882 324.166 58.2018 324.128 58.3294L323.254 61.1591H326.425Z"
		fill="#3F3F3F"/>
	<path
		d="M340.389 54.0516C341.494 54.0516 342.403 54.1848 343.119 54.4511C343.841 54.7175 344.376 55.1197 344.725 55.6579C345.075 56.1961 345.25 56.8758 345.25 57.6969C345.25 58.2518 345.144 58.7372 344.934 59.1534C344.723 59.5695 344.445 59.9218 344.101 60.2103C343.757 60.4988 343.386 60.7346 342.986 60.9177L346.565 66.2192H343.702L340.797 61.5503H339.424V66.2192H336.844V54.0516H340.389ZM340.206 56.1656H339.424V59.453H340.256C341.111 59.453 341.721 59.3115 342.087 59.0285C342.459 58.74 342.645 58.3183 342.645 57.7635C342.645 57.1865 342.445 56.7759 342.046 56.5318C341.652 56.2876 341.039 56.1656 340.206 56.1656Z"
		fill="#3F3F3F"/>
	<path d="M357.392 66.2192H354.812V56.1989H351.508V54.0516H360.696V56.1989H357.392V66.2192Z"
	      fill="#3F3F3F"/>
</svg>
