<svg width="24" height="24" viewBox="0 0 24 24" fill="none" xmlns="http://www.w3.org/2000/svg">
	<path d="M20.0299 10.9981C19.7849 9.23506 18.967 7.60145 17.7022 6.34894C16.4374 5.09644 14.7959 4.29453 13.0305 4.06674C11.2652 3.83894 9.47385 4.19791 7.93255 5.08834C6.39125 5.97876 5.18546 7.35125 4.50094 8.99439M4 4.9869L4 8.99439H8.00749" stroke="#3A8EF7" stroke-width="1.5" stroke-linecap="round" stroke-linejoin="round"/>
	<path d="M4 13.0018C4.24502 14.7649 5.06292 16.3985 6.32771 17.651C7.5925 18.9035 9.23402 19.7054 10.9994 19.9332C12.7648 20.161 14.5561 19.8021 16.0974 18.9116C17.6387 18.0212 18.8445 16.6487 19.529 15.0056M20.0299 19.0131L20.0299 15.0056L16.0225 15.0056" stroke="#3A8EF7" stroke-width="1.5" stroke-linecap="round" stroke-linejoin="round"/>
</svg>
