<svg fill="none" height="24" viewBox="0 0 25 24" width="25" xmlns="http://www.w3.org/2000/svg">
    <path d="M8.46209 5.82434L6.09242 5.82434C5.76523 5.82434 5.5 6.08957 5.5 6.41676L5.5 18.2651C5.5 18.5923 5.76523 18.8575 6.09242 18.8575H8.46209C8.78927 18.8575 9.0545 18.5923 9.0545 18.2651L9.0545 6.41676C9.0545 6.08957 8.78927 5.82434 8.46209 5.82434Z"
          stroke="#3A8EF7" stroke-linecap="round" stroke-linejoin="round" stroke-width="1.5"/>
    <path d="M5.5 8.78638H9.0545" stroke="#3A8EF7" stroke-linecap="round" stroke-linejoin="round" stroke-width="1.5"/>
    <path d="M12.0165 5.82434L9.64686 5.82434C9.31968 5.82434 9.05444 6.08957 9.05444 6.41676L9.05444 18.2651C9.05444 18.5923 9.31968 18.8575 9.64686 18.8575H12.0165C12.3437 18.8575 12.6089 18.5923 12.6089 18.2651L12.6089 6.41676C12.6089 6.08957 12.3437 5.82434 12.0165 5.82434Z"
          stroke="#3A8EF7" stroke-linecap="round" stroke-linejoin="round" stroke-width="1.5"/>
    <path d="M9.05444 15.8954H12.6089" stroke="#3A8EF7" stroke-linecap="round" stroke-linejoin="round"
          stroke-width="1.5"/>
    <path d="M15.5368 5.63049L13.2382 6.24661C12.9209 6.33167 12.7325 6.65791 12.8176 6.97528L15.8982 18.4682C15.9832 18.7855 16.3095 18.9739 16.6268 18.8888L18.9254 18.2727C19.2428 18.1876 19.4311 17.8614 19.346 17.544L16.2655 6.05111C16.1804 5.73374 15.8542 5.54543 15.5368 5.63049Z"
          stroke="#3A8EF7" stroke-linecap="round" stroke-linejoin="round" stroke-width="1.5"/>
    <path d="M15.2156 16.1324L18.6516 15.2068" stroke="#3A8EF7" stroke-linecap="round" stroke-linejoin="round"
          stroke-width="1.5"/>
    <path d="M13.3792 9.26041L16.8152 8.34216" stroke="#3A8EF7" stroke-linecap="round" stroke-linejoin="round"
          stroke-width="1.5"/>
</svg>
