<svg fill="none" height="24" viewBox="0 0 25 24" width="25" xmlns="http://www.w3.org/2000/svg">
    <path d="M9.66653 10.7222C11.3848 10.7222 12.7776 9.32933 12.7776 7.61111C12.7776 5.89289 11.3848 4.5 9.66653 4.5C7.94831 4.5 6.55542 5.89289 6.55542 7.61111C6.55542 9.32933 7.94831 10.7222 9.66653 10.7222Z"
          stroke="#3A8EF7" stroke-linecap="round" stroke-linejoin="round" stroke-width="1.5"/>
    <path d="M5 18.5L5 16.9445C5 16.1194 5.32778 15.328 5.91122 14.7446C6.49467 14.1612 7.28599 13.8334 8.11111 13.8334L11.2222 13.8334C12.0473 13.8334 12.8387 14.1612 13.4221 14.7446C14.0056 15.328 14.3333 16.1194 14.3333 16.9445L14.3333 18.5"
          stroke="#3A8EF7" stroke-linecap="round" stroke-linejoin="round" stroke-width="1.5"/>
    <path d="M15.1111 4.60107C15.7803 4.77242 16.3734 5.16162 16.797 5.70732C17.2206 6.25301 17.4505 6.92416 17.4505 7.61496C17.4505 8.30576 17.2206 8.97691 16.797 9.52261C16.3734 10.0683 15.7803 10.4575 15.1111 10.6289"
          stroke="#3A8EF7" stroke-linecap="round" stroke-linejoin="round" stroke-width="1.5"/>
    <path d="M19.0001 18.5L19.0001 16.9444C18.9961 16.2577 18.7651 15.5917 18.3431 15.05C17.921 14.5084 17.3316 14.1216 16.6667 13.95"
          stroke="#3A8EF7" stroke-linecap="round" stroke-linejoin="round" stroke-width="1.5"/>
</svg>
