<svg width="24" height="24" viewBox="0 0 24 24" fill="none" xmlns="http://www.w3.org/2000/svg">
	<path
		d="M9.16665 10.7222C10.8849 10.7222 12.2778 9.32933 12.2778 7.61111C12.2778 5.89289 10.8849 4.5 9.16665 4.5C7.44843 4.5 6.05554 5.89289 6.05554 7.61111C6.05554 9.32933 7.44843 10.7222 9.16665 10.7222Z"
		stroke="#9595B1" stroke-width="1.5" stroke-linecap="round" stroke-linejoin="round"/>
	<path
		d="M4.5 18.5V16.9444C4.5 16.1193 4.82778 15.328 5.41122 14.7446C5.99467 14.1611 6.78599 13.8333 7.61111 13.8333H10.7222C11.5473 13.8333 12.3387 14.1611 12.9221 14.7446C13.5056 15.328 13.8333 16.1193 13.8333 16.9444V18.5"
		stroke="#9595B1" stroke-width="1.5" stroke-linecap="round" stroke-linejoin="round"/>
	<path
		d="M14.6111 4.6011C15.2804 4.77245 15.8735 5.16165 16.2971 5.70735C16.7207 6.25304 16.9506 6.92419 16.9506 7.61499C16.9506 8.30579 16.7207 8.97694 16.2971 9.52264C15.8735 10.0683 15.2804 10.4575 14.6111 10.6289"
		stroke="#9595B1" stroke-width="1.5" stroke-linecap="round" stroke-linejoin="round"/>
	<path
		d="M18.5 18.5V16.9444C18.4961 16.2578 18.2651 15.5917 17.843 15.0501C17.4209 14.5084 16.8316 14.1217 16.1667 13.95"
		stroke="#9595B1" stroke-width="1.5" stroke-linecap="round" stroke-linejoin="round"/>
</svg>
